<mxfile host="app.diagrams.net" modified="2023-06-21T02:43:28.654Z" agent="Mozilla/5.0 (Windows NT 10.0; Win64; x64) AppleWebKit/537.36 (KHTML, like Gecko) Chrome/114.0.0.0 Safari/537.36 Edg/114.0.1823.51" etag="ZLHE0ehz3dj232_evbpB" version="21.5.0" type="github">
  <diagram name="第 1 页" id="bibF9dJg5SwcvGGGdXnd">
    <mxGraphModel dx="1066" dy="725" grid="1" gridSize="10" guides="1" tooltips="1" connect="1" arrows="1" fold="1" page="1" pageScale="1" pageWidth="827" pageHeight="1169" math="0" shadow="0">
      <root>
        <mxCell id="0" />
        <mxCell id="1" parent="0" />
        <mxCell id="CFQvKzb5lcJhRTIT20Lr-2" value="活动流程编排接口&lt;br&gt;&lt;div style=&quot;background-color: rgb(36, 41, 46); color: rgb(209, 213, 218); font-family: &amp;quot;JetBrains Mono&amp;quot;, monospace; font-size: 12pt;&quot;&gt;doDrawProcess&lt;/div&gt;" style="rounded=1;whiteSpace=wrap;html=1;" vertex="1" parent="1">
          <mxGeometry x="60" y="100" width="120" height="60" as="geometry" />
        </mxCell>
      </root>
    </mxGraphModel>
  </diagram>
</mxfile>
